<svg xmlns="http://www.w3.org/2000/svg" width="256" height="256" viewBox="0 0 100 100"><rect width="100" height="100" rx="20" fill="#c90004"></rect><path d="M47.66 58.82L39.65 58.82L39.65 77.45Q38.93 77.72 37.76 77.94Q36.59 78.17 35.15 78.17L35.15 78.17Q32.36 78.17 31.15 77.13Q29.93 76.10 29.93 73.67L29.93 73.67L29.93 27.23Q29.93 25.70 30.79 24.84Q31.64 23.99 33.17 23.54L33.17 23.54Q35.96 22.55 39.83 22.19Q43.70 21.83 47.12 21.83L47.12 21.83Q58.82 21.83 64.44 26.78Q70.07 31.73 70.07 40.19L70.07 40.19Q70.07 48.65 64.44 53.73Q58.82 58.82 47.66 58.82L47.66 58.82ZM39.56 50.99L47.03 50.99Q53.24 50.99 56.80 48.29Q60.35 45.59 60.35 40.19L60.35 40.19Q60.35 34.79 56.98 32.27Q53.60 29.75 47.30 29.75L47.30 29.75Q45.23 29.75 43.20 29.93Q41.18 30.11 39.56 30.38L39.56 30.38L39.56 50.99Z" fill="#fff"></path></svg>